<svg width="161" height="35" viewBox="0 0 161 35" fill="none" xmlns="http://www.w3.org/2000/svg">
<path d="M6.92614 35H0.176136L12.4659 0.0909081H20.2727L32.5795 35H25.8295L16.5057 7.25H16.233L6.92614 35ZM7.14773 21.3125H25.5568V26.392H7.14773V21.3125ZM43.5014 0.0909081V35H37.1776V0.0909081H43.5014Z" fill="#2596DD"/>
<path d="M65.946 15.0057V20.0852H50.2301V15.0057H65.946ZM72.7088 35V0.0909081H85.7997C88.4815 0.0909081 90.7315 0.590908 92.5497 1.59091C94.3793 2.59091 95.7599 3.96591 96.6918 5.71591C97.6349 7.45454 98.1065 9.43182 98.1065 11.6477C98.1065 13.8864 97.6349 15.875 96.6918 17.6136C95.7486 19.3523 94.3565 20.7216 92.5156 21.7216C90.6747 22.7102 88.4077 23.2045 85.7145 23.2045H77.0384V18.0057H84.8622C86.4304 18.0057 87.7145 17.733 88.7145 17.1875C89.7145 16.642 90.4531 15.892 90.9304 14.9375C91.419 13.983 91.6634 12.8864 91.6634 11.6477C91.6634 10.4091 91.419 9.31818 90.9304 8.375C90.4531 7.43182 89.7088 6.69886 88.6974 6.17614C87.6974 5.64205 86.4077 5.375 84.8281 5.375H79.0327V35H72.7088ZM103.599 35V0.0909081H116.69C119.372 0.0909081 121.622 0.590908 123.44 1.59091C125.27 2.59091 126.651 3.96591 127.582 5.71591C128.526 7.45454 128.997 9.43182 128.997 11.6477C128.997 13.8864 128.526 15.875 127.582 17.6136C126.639 19.3523 125.247 20.7216 123.406 21.7216C121.565 22.7102 119.298 23.2045 116.605 23.2045H107.929V18.0057H115.753C117.321 18.0057 118.605 17.733 119.605 17.1875C120.605 16.642 121.344 15.892 121.821 14.9375C122.31 13.983 122.554 12.8864 122.554 11.6477C122.554 10.4091 122.31 9.31818 121.821 8.375C121.344 7.43182 120.599 6.69886 119.588 6.17614C118.588 5.64205 117.298 5.375 115.719 5.375H109.923V35H103.599ZM135.082 35H128.332L140.622 0.0909081H148.429L160.736 35H153.986L144.662 7.25H144.389L135.082 35ZM135.304 21.3125H153.713V26.392H135.304V21.3125Z" fill="#1DD5CB"/>
</svg>
